 <svg  version="1.0" xmlns="http://www.w3.org/2000/svg"  width="300.000000pt" height="300.000000pt" viewBox="0 0 300.000000 300.000000"  preserveAspectRatio="xMidYMid meet">  <g transform="translate(0.000000,300.000000) scale(0.100000,-0.100000)" fill="#5f5d5d" stroke="none"> <path d="M130 2961 l24 -41 -26 -47 -26 -47 -51 3 c-31 1 -51 -2 -51 -8 0 -16 105 -14 117 2 6 6 20 31 33 55 l24 42 -21 37 c-12 21 -27 39 -34 42 -6 2 -1 -15 11 -38z"/> <path d="M167 2965 c17 -35 17 -35 85 -35 65 0 68 1 83 30 21 41 18 50 -8 18 -18 -22 -32 -27 -75 -29 -49 -3 -55 -1 -70 24 -24 39 -35 33 -15 -8z"/> <path d="M356 2958 c-27 -45 -27 -45 21 -121 24 -38 24 -38 85 -35 l62 3 33 55 32 54 -22 40 c-12 22 -28 41 -35 44 -8 2 -3 -13 12 -37 14 -22 26 -43 26 -45 0 -3 -12 -26 -27 -51 -28 -45 -28 -45 -83 -45 l-55 0 -27 48 -27 48 25 42 c14 23 21 42 15 42 -5 0 -21 -19 -35 -42z"/> <path d="M571 2978 c25 -50 40 -58 100 -58 55 0 58 1 78 36 23 39 25 44 14 44 -5 0 -16 -14 -25 -30 -16 -28 -21 -30 -72 -30 -52 0 -57 2 -71 30 -9 17 -20 30 -26 30 -6 0 -5 -8 2 -22z"/> <path d="M774 2959 l-27 -44 30 -55 31 -55 69 -3 68 -3 30 56 29 55 -24 45 c-14 25 -28 45 -33 45 -5 0 -7 -3 -5 -7 2 -5 12 -25 22 -45 19 -37 19 -37 -5 -83 l-24 -46 -60 3 c-59 3 -60 3 -84 46 l-24 44 23 40 c30 54 18 60 -16 7z"/> <path d="M980 2994 c0 -5 9 -24 20 -41 19 -32 22 -33 84 -33 63 0 64 1 85 36 23 39 25 44 13 44 -4 0 -16 -13 -25 -30 -17 -28 -22 -30 -77 -30 -49 0 -60 3 -65 19 -6 21 -35 49 -35 35z"/> <path d="M1189 2952 l-26 -47 34 -57 34 -58 58 0 c64 0 75 7 110 77 l21 41 -26 46 c-14 25 -30 46 -35 46 -6 0 2 -21 17 -48 l26 -47 -28 -48 c-29 -47 -29 -47 -84 -47 l-55 0 -27 49 -26 48 23 39 c26 41 30 54 18 54 -5 0 -20 -21 -34 -48z"/> <path d="M1411 2960 l23 -40 67 0 c66 0 68 1 88 34 23 36 25 46 13 46 -4 0 -16 -16 -26 -35 -18 -33 -22 -35 -73 -35 -51 0 -55 2 -74 35 -29 49 -45 44 -18 -5z"/> <path d="M1606 2950 l-27 -49 32 -56 31 -56 66 3 66 3 32 53 32 54 -25 44 c-24 42 -40 60 -48 52 -2 -2 9 -24 24 -48 l29 -45 -27 -48 -26 -48 -58 3 c-58 3 -59 3 -84 49 l-26 45 26 40 c28 40 33 54 19 54 -5 0 -21 -22 -36 -50z"/> <path d="M1824 2958 l26 -43 66 0 66 0 25 43 c14 23 21 42 15 42 -6 0 -19 -16 -31 -35 -19 -33 -23 -35 -75 -35 -51 0 -56 2 -76 35 -12 19 -26 35 -31 35 -6 0 1 -19 15 -42z"/> <path d="M2026 2954 c-14 -26 -26 -51 -26 -57 0 -14 51 -100 64 -109 15 -11 80 -10 109 1 14 5 37 31 52 58 l27 48 -28 53 -28 52 -72 0 -72 0 -26 -46z m180 -10 l27 -45 -26 -47 -26 -47 -58 0 -58 0 -24 46 -25 47 24 46 25 46 57 0 57 0 27 -46z"/> <path d="M2220 2994 c0 -3 10 -23 23 -45 l22 -39 68 2 69 3 26 44 c30 51 14 52 -20 1 -22 -33 -27 -35 -77 -35 -51 -1 -54 1 -74 37 -19 33 -37 49 -37 32z"/> <path d="M2441 2946 l-31 -54 32 -56 33 -56 65 0 65 0 32 58 32 57 -30 53 -31 52 -68 0 -69 0 -30 -54z m181 -6 l28 -49 -28 -45 c-27 -45 -27 -45 -84 -46 l-56 0 -26 46 -26 46 28 49 27 49 55 0 55 0 27 -50z"/> <path d="M2641 2978 c38 -73 47 -79 112 -76 l61 3 28 48 c15 26 23 47 18 47 -5 0 -20 -18 -32 -40 -22 -39 -24 -40 -79 -40 -54 0 -56 1 -78 40 -23 42 -51 58 -30 18z"/> <path d="M2860 2948 c-16 -29 -30 -57 -29 -63 0 -5 13 -30 28 -55 27 -45 27 -45 87 -46 l59 -1 -53 6 c-51 6 -55 8 -80 53 l-26 46 26 49 27 48 51 -3 c31 -3 50 0 50 7 0 7 -22 11 -55 11 l-55 0 -30 -52z"/> <path d="M183 2898 c-5 -7 -21 -33 -35 -58 l-25 -45 34 -57 34 -58 60 0 59 0 37 57 36 56 -31 56 -31 56 -64 3 c-43 2 -67 -1 -74 -10z m154 -59 l26 -45 -27 -47 -28 -47 -56 0 -57 0 -26 48 -27 48 27 47 26 48 58 -3 c58 -3 59 -3 84 -49z"/> <path d="M606 2898 c-9 -5 -28 -32 -42 -59 l-25 -50 31 -55 31 -54 65 0 64 0 30 48 c16 26 30 53 30 61 0 11 -42 93 -57 110 -7 9 -111 8 -127 -1z m143 -59 l25 -46 -24 -47 -25 -47 -59 3 c-59 3 -59 3 -84 48 l-24 45 27 48 27 48 56 -3 c54 -3 55 -4 81 -49z"/> <path d="M990 2853 c-16 -27 -30 -54 -30 -62 0 -7 12 -35 27 -61 l27 -48 64 -4 c70 -3 75 0 116 80 17 32 16 34 -14 87 l-31 55 -65 0 -64 0 -30 -47z m176 -19 l27 -45 -26 -47 -26 -47 -57 0 -57 0 -26 47 -26 47 25 45 25 46 57 0 57 0 27 -46z"/> <path d="M1433 2888 c-5 -7 -21 -33 -35 -58 l-26 -45 32 -55 32 -55 65 -3 64 -3 33 56 c31 55 31 57 16 88 -41 79 -51 87 -113 87 -35 0 -62 -5 -68 -12z m154 -59 l25 -47 -27 -46 -27 -46 -56 0 -57 0 -26 47 -27 47 27 48 26 48 58 -2 c58 -3 58 -3 84 -49z"/> <path d="M1821 2838 c-17 -29 -31 -55 -31 -58 0 -3 14 -29 30 -57 l30 -53 65 0 65 0 30 48 c16 26 29 54 29 62 0 8 -13 35 -28 60 l-27 45 -67 3 -66 3 -30 -53z m179 -13 l25 -46 -27 -47 -27 -47 -56 0 -56 0 -26 47 -26 47 24 46 24 45 60 0 60 0 25 -45z"/> <path d="M2255 2865 c-8 -14 -22 -36 -30 -50 -21 -33 -18 -53 14 -105 l27 -45 65 -3 64 -3 33 57 c18 31 31 60 30 63 -2 3 -16 30 -32 59 l-29 52 -63 0 c-57 0 -65 -3 -79 -25z m160 -42 l26 -47 -25 -46 c-24 -44 -26 -45 -80 -48 l-55 -3 -30 47 -29 47 26 49 27 48 57 0 56 0 27 -47z"/> <path d="M2650 2826 l-31 -55 32 -55 31 -56 67 0 66 0 31 56 32 56 -31 54 -31 54 -67 0 -68 0 -31 -54z m182 -8 l29 -46 -28 -46 c-28 -46 -28 -46 -84 -46 -57 0 -57 0 -84 45 l-26 45 28 50 28 51 54 -3 c53 -3 55 -4 83 -50z"/> <path d="M0 2780 c0 -5 22 -10 50 -10 47 0 51 -2 75 -40 31 -49 31 -51 -1 -106 -25 -43 -28 -44 -75 -44 -27 0 -49 -4 -49 -10 0 -5 24 -10 54 -10 l54 0 33 58 32 57 -30 55 -30 55 -56 3 c-35 2 -57 -1 -57 -8z"/> <path d="M362 2728 l-30 -53 31 -57 32 -58 65 0 66 0 32 56 32 55 -31 55 -31 54 -68 0 -68 0 -30 -52z m181 -10 l29 -46 -27 -46 -27 -46 -57 0 c-56 0 -56 0 -83 45 l-28 45 28 50 27 50 55 -2 c53 -3 55 -4 83 -50z"/> <path d="M779 2724 l-32 -56 23 -41 c37 -68 45 -74 103 -75 28 -1 57 1 63 6 14 9 64 95 64 110 0 7 -14 34 -31 62 l-31 50 -63 0 -64 0 -32 -56z m181 -10 l24 -47 -25 -46 c-26 -45 -27 -46 -81 -49 l-56 -3 -26 48 c-23 40 -25 51 -16 73 29 64 37 70 98 70 l57 0 25 -46z"/> <path d="M1234 2772 c-7 -4 -25 -30 -42 -58 l-30 -52 32 -53 32 -54 66 -3 66 -3 31 56 c31 54 31 56 15 88 -40 78 -51 87 -107 87 -29 0 -57 -4 -63 -8z m140 -59 l28 -48 -25 -45 c-25 -45 -26 -45 -84 -48 l-58 -3 -27 48 -27 49 30 47 c29 46 30 47 82 47 52 0 52 -1 81 -47z"/> <path d="M1611 2714 l-32 -55 31 -55 31 -54 68 0 67 0 30 53 31 54 -31 56 -31 57 -67 0 -66 0 -31 -56z m180 -12 l26 -47 -26 -45 c-26 -43 -29 -45 -80 -48 -57 -3 -61 -1 -96 64 -17 31 -17 33 10 78 l27 46 56 0 57 0 26 -48z"/> <path d="M2029 2713 l-33 -57 30 -55 31 -56 67 0 68 0 31 55 31 56 -35 57 -34 57 -62 0 -62 0 -32 -57z m179 -14 l26 -46 -28 -47 -27 -46 -57 0 -57 0 -24 45 c-21 39 -22 49 -12 73 31 68 38 73 97 70 54 -3 56 -4 82 -49z"/> <path d="M2441 2705 l-31 -55 31 -55 31 -55 67 0 67 0 31 55 32 55 -32 55 -31 55 -67 0 -67 0 -31 -55z m181 -8 l28 -48 -28 -49 -27 -50 -55 0 -55 0 -28 50 c-30 53 -29 59 13 120 15 21 25 25 71 25 53 -1 53 -1 81 -48z"/> <path d="M2859 2703 l-33 -57 31 -55 31 -56 56 -3 c34 -2 56 1 56 8 0 5 -22 10 -50 10 -48 0 -50 1 -77 47 l-27 46 26 46 c24 44 27 46 77 49 68 4 66 22 -3 22 l-55 0 -32 -57z"/> <path d="M157 2613 l-34 -58 25 -45 c41 -72 39 -71 109 -68 l64 3 31 56 31 56 -36 56 -37 57 -59 0 -60 0 -34 -57z m180 -15 l26 -47 -27 -45 -27 -46 -57 0 -57 0 -27 48 -27 48 30 47 30 48 55 -3 c54 -3 56 -4 81 -50z"/> <path d="M570 2605 l-32 -55 30 -53 29 -52 69 -3 69 -3 28 50 c15 27 27 55 27 62 0 8 -14 35 -30 62 l-30 47 -64 0 -65 0 -31 -55z m180 -11 l25 -45 -26 -47 c-26 -46 -27 -47 -81 -50 l-56 -3 -27 48 -26 48 23 47 23 48 60 0 60 0 25 -46z"/> <path d="M990 2608 c-16 -29 -30 -60 -29 -68 0 -8 13 -35 28 -60 l27 -45 65 -3 64 -3 33 56 c19 31 32 59 30 63 -2 4 -16 31 -32 60 l-29 52 -63 0 -64 0 -30 -52z m177 -19 l25 -47 -27 -46 -27 -46 -56 0 -57 0 -27 48 -27 48 30 47 30 48 55 -3 c54 -3 56 -4 81 -49z"/> <path d="M1403 2595 l-32 -55 32 -55 32 -55 67 0 67 0 31 54 31 55 -32 55 -31 56 -66 0 -67 0 -32 -55z m181 -7 l29 -48 -29 -47 c-29 -46 -32 -48 -81 -51 l-51 -3 -31 51 -31 50 31 50 31 51 51 -3 c49 -3 52 -5 81 -50z"/> <path d="M1819 2594 l-32 -57 31 -56 31 -56 66 0 67 0 31 56 31 55 -33 57 -32 57 -64 0 -64 0 -32 -56z m180 -15 l24 -46 -24 -44 -24 -44 -58 0 -58 0 -26 46 -27 46 28 47 27 47 57 -3 c57 -3 57 -3 81 -49z"/> <path d="M2238 2591 c-16 -27 -28 -55 -28 -62 0 -8 14 -35 30 -61 l30 -48 64 0 65 0 31 55 32 55 -30 53 -29 52 -69 3 -69 3 -27 -50z m179 -12 l25 -47 -27 -46 -27 -46 -57 0 -58 0 -25 47 -26 46 30 49 30 49 55 -3 c53 -3 55 -4 80 -49z"/> <path d="M2652 2584 c-31 -54 -31 -56 -16 -87 39 -75 49 -83 106 -85 64 -3 72 2 108 64 l28 49 -32 57 -31 58 -65 0 -66 0 -32 -56z m181 -10 l28 -46 -29 -46 c-28 -46 -30 -47 -83 -50 l-54 -3 -28 51 -28 50 26 45 c27 45 27 45 84 45 56 0 56 0 84 -46z"/> <path d="M47 2533 c49 -4 53 -6 77 -48 32 -54 32 -56 1 -105 -24 -38 -28 -40 -75 -40 -28 0 -50 -4 -50 -10 0 -5 24 -10 54 -10 l54 0 31 50 c17 28 31 56 30 63 0 6 -13 32 -28 57 -27 45 -27 45 -87 46 -56 1 -57 1 -7 -3z"/> <path d="M363 2484 l-33 -55 31 -53 c32 -58 43 -64 115 -62 47 1 49 2 81 57 l34 56 -33 57 -32 56 -66 0 -65 0 -32 -56z m181 -10 l26 -46 -28 -49 -27 -49 -55 0 -55 0 -27 50 -28 50 28 45 c27 45 27 45 84 45 l56 0 26 -46z"/> <path d="M808 2523 c-8 -10 -25 -37 -38 -60 l-23 -41 32 -56 32 -56 64 0 63 0 31 50 c17 28 31 55 31 62 0 15 -50 101 -64 110 -23 16 -112 9 -128 -9z m151 -54 l25 -47 -25 -46 -24 -47 -59 3 c-59 3 -59 3 -84 48 l-24 45 27 48 27 48 57 -3 c56 -3 56 -3 80 -49z"/> <path d="M1194 2473 l-31 -56 31 -54 31 -53 69 2 69 3 29 52 29 51 -31 56 -32 56 -66 0 -67 0 -31 -57z m183 -13 l25 -45 -28 -48 c-28 -46 -30 -47 -81 -47 -51 0 -52 1 -81 48 l-30 49 27 47 26 47 58 -3 c58 -3 59 -3 84 -48z"/> <path d="M1638 2513 c-8 -10 -25 -36 -37 -58 l-22 -41 32 -57 33 -57 63 0 c62 0 63 1 86 38 49 76 48 73 10 135 l-35 57 -57 0 c-43 0 -62 -5 -73 -17z m151 -50 l30 -47 -27 -49 -27 -48 -58 3 c-58 3 -59 3 -84 48 l-25 45 27 48 27 47 54 0 c54 0 54 0 83 -47z"/> <path d="M2030 2473 c-16 -26 -30 -54 -30 -60 0 -7 12 -36 28 -63 l27 -50 69 2 69 3 29 53 30 52 -30 53 -29 52 -66 3 -66 3 -31 -48z m148 23 c7 -4 21 -25 32 -47 l20 -39 -25 -50 -25 -50 -55 0 c-53 0 -55 1 -80 43 -31 54 -31 58 -1 110 24 40 27 42 73 42 27 -1 54 -4 61 -9z"/> <path d="M2462 2493 c-11 -16 -26 -42 -35 -59 -15 -30 -15 -32 17 -85 l32 -54 64 0 64 0 32 54 c36 59 36 56 -13 134 -23 36 -25 37 -82 37 -54 0 -62 -3 -79 -27z m160 -41 l27 -47 -27 -48 -27 -47 -55 0 c-55 0 -55 0 -83 46 l-27 46 26 49 27 49 56 0 56 0 27 -48z"/> <path d="M2883 2498 c-6 -7 -20 -32 -33 -55 l-23 -41 30 -54 30 -53 59 -1 59 -1 -53 6 c-51 6 -54 8 -80 54 l-26 49 26 46 c25 45 29 47 80 53 l53 6 -56 1 c-35 1 -60 -3 -66 -10z"/> <path d="M155 2365 l-30 -56 30 -55 30 -55 69 3 69 3 29 52 29 51 -31 56 -32 56 -66 0 -67 0 -30 -55z m180 -10 l27 -44 -28 -51 -27 -50 -53 0 c-52 0 -53 0 -82 48 l-30 49 27 46 26 47 57 0 c57 0 57 0 83 -45z"/> <path d="M571 2363 l-34 -56 31 -56 31 -56 68 0 68 0 29 56 29 56 -32 56 -32 57 -62 0 -62 0 -34 -57z m179 -13 l26 -45 -26 -45 -26 -45 -58 0 -57 0 -26 46 -26 45 28 48 27 47 56 -3 c54 -3 56 -4 82 -48z"/> <path d="M985 2355 l-29 -55 29 -55 30 -56 69 3 69 3 29 53 30 52 -30 53 -29 52 -69 3 -69 3 -30 -56z m179 -5 l27 -50 -28 -50 -28 -50 -52 0 c-51 0 -53 1 -78 43 -14 24 -25 50 -25 57 0 7 11 33 25 57 25 42 27 43 79 43 l53 0 27 -50z"/> <path d="M1417 2373 c-48 -77 -48 -74 -13 -133 l32 -55 62 -3 62 -3 35 56 c20 31 35 59 33 63 -2 4 -16 31 -32 60 l-29 52 -63 0 c-63 0 -64 -1 -87 -37z m170 -33 l25 -45 -28 -48 c-29 -47 -29 -47 -84 -47 l-55 0 -26 48 -27 48 27 47 26 48 58 -3 c58 -3 59 -3 84 -48z"/> <path d="M1843 2388 c-6 -7 -20 -32 -33 -55 l-23 -41 30 -54 30 -53 66 -3 66 -3 31 48 c16 26 30 54 30 60 0 7 -12 35 -27 63 l-28 50 -66 0 c-42 0 -70 -5 -76 -12z m156 -49 l25 -46 -24 -47 -25 -46 -61 0 -61 0 -22 48 -22 47 27 48 26 48 56 -3 c54 -3 55 -4 81 -49z"/> <path d="M2240 2353 c-35 -57 -36 -62 -10 -112 31 -61 45 -71 105 -71 58 0 69 9 109 88 17 32 16 33 -16 87 l-33 55 -62 0 -63 0 -30 -47z m175 -19 l27 -46 -25 -47 -26 -46 -57 0 c-58 0 -58 0 -85 45 l-26 45 25 48 25 47 58 0 57 0 27 -46z"/> <path d="M2672 2373 c-11 -16 -27 -42 -36 -60 -15 -31 -15 -33 16 -87 l32 -56 62 0 c68 0 77 7 117 85 15 30 14 33 -20 88 l-35 57 -58 0 c-53 0 -61 -3 -78 -27z m159 -41 l27 -48 -27 -47 -26 -48 -58 3 c-58 3 -59 3 -84 48 l-25 45 28 48 c29 47 29 47 84 47 l55 0 26 -48z"/> <path d="M0 2290 c0 -6 23 -10 53 -10 52 0 52 0 77 -46 l24 -46 -26 -47 c-25 -44 -29 -46 -80 -52 l-53 -6 60 -1 60 -2 29 54 29 54 -30 53 -30 54 -57 3 c-34 2 -56 -1 -56 -8z"/> <path d="M377 2263 c-49 -79 -49 -75 -14 -134 l32 -54 65 -3 65 -2 33 56 33 57 -34 56 -33 56 -62 3 -61 3 -24 -38z m166 -32 l27 -49 -26 -46 -26 -46 -56 0 c-57 1 -57 1 -84 46 l-28 45 28 49 27 50 56 0 56 0 26 -49z"/> <path d="M780 2238 c-16 -29 -30 -56 -30 -60 0 -4 14 -30 31 -58 l31 -50 67 0 67 0 29 54 29 55 -23 43 c-38 67 -38 68 -107 68 l-64 0 -30 -52z m180 -13 l25 -46 -27 -47 c-26 -46 -28 -47 -81 -50 l-55 -3 -26 48 c-23 40 -25 51 -16 73 29 64 37 70 98 70 l57 0 25 -45z"/> <path d="M1223 2278 c-5 -7 -21 -33 -35 -58 l-26 -45 32 -55 32 -55 65 -3 64 -3 33 57 c18 31 31 60 30 63 -2 3 -16 30 -32 59 l-29 52 -62 0 c-38 0 -66 -5 -72 -12z m152 -55 l26 -47 -25 -46 c-25 -45 -25 -45 -83 -48 l-58 -3 -26 48 -27 47 27 48 26 48 57 0 56 0 27 -47z"/> <path d="M1610 2225 l-31 -55 31 -55 31 -55 68 0 67 0 29 55 30 55 -30 55 -29 55 -67 0 -68 0 -31 -55z m181 -8 l29 -47 -28 -46 c-28 -44 -30 -46 -84 -48 l-55 -3 -27 48 -27 48 28 49 27 49 54 -2 c53 -2 55 -3 83 -48z"/> <path d="M2031 2230 c-17 -28 -31 -55 -31 -61 0 -7 14 -36 31 -65 l30 -54 64 0 63 0 32 57 32 57 -30 56 -31 55 -64 3 -65 3 -31 -51z m175 -17 l27 -47 -26 -45 -26 -46 -58 0 -58 0 -24 43 c-20 38 -22 47 -11 70 29 66 37 72 94 72 54 0 54 0 82 -47z"/> <path d="M2441 2216 l-31 -55 32 -55 32 -56 66 0 66 0 31 55 32 55 -32 55 -31 55 -67 0 -67 0 -31 -54z m181 -6 l27 -49 -25 -45 -26 -46 -58 0 -59 0 -26 44 c-28 48 -27 55 17 119 17 24 26 27 71 27 52 0 52 0 79 -50z"/> <path d="M2859 2213 l-32 -56 28 -51 c16 -28 33 -54 39 -58 17 -11 106 -9 106 2 0 6 -22 10 -50 10 -48 0 -50 1 -77 47 l-27 46 26 46 c24 44 27 46 77 49 68 4 66 22 -3 22 l-55 0 -32 -57z"/> <path d="M157 2123 l-35 -57 26 -46 c40 -70 39 -70 106 -70 l62 0 32 56 c18 32 31 60 30 63 -2 3 -16 30 -32 59 l-29 52 -63 0 -62 0 -35 -57z m180 -14 l26 -45 -27 -47 -28 -47 -56 0 -57 0 -26 48 -26 47 26 48 26 47 58 -2 c58 -3 59 -3 84 -49z"/> <path d="M570 2118 c-16 -29 -30 -55 -30 -58 0 -3 14 -29 30 -57 l30 -53 68 0 67 0 30 55 29 55 -29 55 -30 55 -67 0 -68 0 -30 -52z m179 -10 l26 -47 -25 -45 c-13 -25 -28 -46 -32 -47 -5 0 -28 0 -53 0 -25 0 -49 0 -53 0 -5 1 -19 22 -31 49 l-22 47 27 48 26 48 56 -3 c54 -3 55 -4 81 -50z"/> <path d="M1013 2158 c-6 -7 -21 -33 -34 -56 l-24 -44 32 -56 31 -57 59 -3 c66 -3 73 1 113 74 l22 42 -33 56 -34 56 -61 0 c-37 0 -65 -5 -71 -12z m152 -54 l27 -46 -25 -47 -26 -46 -57 0 -58 0 -26 45 -27 45 26 47 26 48 57 0 56 0 27 -46z"/> <path d="M1404 2107 l-31 -54 31 -56 31 -57 67 0 66 0 31 56 32 55 -31 55 -31 54 -68 0 -67 0 -30 -53z m180 -5 l28 -47 -25 -45 c-25 -45 -26 -45 -84 -48 l-58 -3 -27 48 -27 49 30 47 c29 46 30 47 82 47 51 -1 52 -1 81 -48z"/> <path d="M1820 2108 c-16 -29 -30 -56 -30 -59 0 -11 51 -99 62 -105 12 -8 117 -11 127 -4 11 8 61 97 61 109 0 6 -14 33 -31 61 l-31 50 -64 0 -64 0 -30 -52z m180 -14 l24 -47 -25 -46 -26 -46 -57 0 -57 0 -26 47 -26 47 27 45 27 46 57 0 57 0 25 -46z"/> <path d="M2237 2103 c-37 -63 -37 -61 10 -135 23 -37 24 -38 86 -38 l62 0 33 55 c32 54 33 55 16 87 -41 81 -50 88 -114 88 l-59 0 -34 -57z m180 -14 l25 -47 -27 -46 -27 -46 -56 0 -57 0 -26 48 c-23 40 -25 50 -15 67 7 11 20 33 30 48 16 26 21 28 72 25 54 -3 56 -4 81 -49z"/> <path d="M2651 2094 l-32 -55 31 -55 31 -54 68 0 67 0 31 55 32 55 -32 55 -32 55 -67 0 -66 0 -31 -56z m182 -10 l28 -46 -29 -46 c-28 -47 -29 -47 -82 -47 -54 0 -54 0 -83 47 l-29 46 27 46 27 46 57 0 c56 0 56 0 84 -46z"/> <path d="M0 2050 c0 -5 22 -10 50 -10 48 0 50 -1 77 -47 l27 -46 -26 -46 c-24 -44 -27 -46 -77 -49 -28 -2 -51 -8 -51 -13 0 -6 23 -9 56 -7 l56 3 31 56 31 55 -33 57 -32 57 -55 0 c-30 0 -54 -4 -54 -10z"/> <path d="M363 1995 l-32 -55 32 -55 31 -55 67 0 67 0 31 55 32 56 -33 54 -33 55 -65 0 -66 0 -31 -55z m183 -11 l26 -45 -29 -47 c-28 -46 -30 -47 -83 -50 l-55 -2 -27 49 -27 50 24 43 c23 41 27 43 77 48 29 3 56 4 60 2 4 -2 20 -23 34 -48z"/> <path d="M780 1993 l-32 -57 30 -56 31 -55 67 0 67 0 31 56 30 55 -33 57 -32 57 -64 0 -63 0 -32 -57z m180 -13 l26 -45 -26 -45 -26 -45 -58 0 -57 0 -26 46 -26 45 28 48 27 47 56 -3 c54 -3 56 -4 82 -48z"/> <path d="M1195 1985 l-30 -55 30 -55 29 -55 67 0 68 0 31 55 32 55 -30 53 -29 52 -69 3 -69 3 -30 -56z m179 -6 l27 -49 -26 -44 c-25 -43 -27 -44 -82 -48 l-55 -3 -28 49 -28 49 28 46 c28 45 30 46 83 47 l53 1 28 -48z"/> <path d="M1612 1984 c-31 -54 -31 -56 -16 -87 42 -82 51 -88 117 -85 l61 3 32 55 32 55 -26 45 c-40 70 -40 70 -106 70 l-62 0 -32 -56z m180 -12 l27 -48 -30 -47 -30 -48 -55 3 c-54 3 -56 4 -81 49 l-25 47 27 46 27 46 56 0 57 0 27 -48z"/> <path d="M2025 1976 l-29 -55 23 -43 c39 -69 38 -69 109 -66 l65 3 30 55 30 55 -32 53 -33 52 -67 0 -67 0 -29 -54z m179 -3 l29 -48 -24 -45 -24 -45 -60 -3 -60 -3 -22 40 c-29 50 -29 55 2 108 25 42 27 43 78 43 52 0 52 -1 81 -47z"/> <path d="M2442 1974 l-33 -57 34 -56 33 -56 64 0 64 0 32 54 33 55 -32 58 -32 58 -65 0 -66 0 -32 -56z m180 -9 l28 -45 -28 -50 -27 -50 -56 0 -56 0 -26 49 -27 49 26 46 26 46 56 0 c57 0 57 0 84 -45z"/> <path d="M2894 2022 c-6 -4 -23 -30 -39 -58 l-28 -51 32 -56 32 -57 55 0 c30 0 54 5 54 10 0 6 -22 10 -50 10 -47 0 -51 2 -75 40 -31 49 -31 51 1 106 25 43 28 44 75 44 27 0 49 5 49 10 0 11 -89 13 -106 2z"/> <path d="M155 1875 l-30 -55 30 -55 29 -55 67 0 68 0 31 55 32 55 -30 53 -29 52 -69 3 -69 3 -30 -56z m157 28 c9 -10 23 -33 32 -51 17 -32 16 -34 -9 -78 -26 -44 -26 -44 -83 -44 -57 1 -57 1 -84 46 l-28 44 31 50 c30 49 32 50 78 50 33 0 53 -5 63 -17z"/> <path d="M569 1874 l-32 -56 23 -41 c39 -71 47 -77 111 -77 l58 0 30 54 c17 29 31 58 31 65 0 6 -14 33 -31 61 l-31 50 -63 0 -64 0 -32 -56z m176 -4 c31 -49 31 -53 -1 -107 l-25 -44 -55 3 c-54 3 -56 4 -81 50 l-26 47 27 45 c27 46 27 46 81 46 53 0 56 -1 80 -40z"/> <path d="M1023 1921 c-15 -9 -63 -96 -63 -112 0 -8 14 -35 30 -61 l30 -48 64 0 65 0 31 55 c30 53 31 55 14 87 -41 80 -51 88 -109 87 -29 -1 -57 -4 -62 -8z m144 -63 l26 -47 -27 -45 -27 -46 -57 0 -57 0 -26 48 c-23 40 -25 50 -15 67 7 11 20 33 30 48 16 26 21 28 72 25 54 -3 56 -4 81 -50z"/> <path d="M1404 1863 l-31 -56 31 -54 30 -53 67 0 68 0 31 55 31 55 -33 55 -33 55 -65 0 -65 0 -31 -57z m181 -8 l26 -45 -28 -50 -28 -50 -52 0 c-52 0 -53 1 -82 47 l-30 47 27 48 27 48 57 0 c56 0 56 0 83 -45z"/> <path d="M1821 1863 l-35 -57 31 -56 31 -55 68 0 67 0 31 56 30 55 -33 57 -32 57 -62 0 -62 0 -34 -57z m175 -9 l28 -47 -25 -46 -24 -46 -59 0 -59 0 -25 45 -25 46 27 47 c28 47 28 47 82 47 53 0 53 0 80 -46z"/> <path d="M2235 1855 l-30 -56 30 -54 29 -55 67 0 68 0 31 55 31 55 -31 55 -31 55 -67 0 -67 0 -30 -55z m178 -7 l29 -47 -29 -50 -28 -51 -52 0 c-51 0 -52 1 -81 49 l-30 48 29 52 30 52 52 -3 c49 -3 52 -5 80 -50z"/> <path d="M2655 1857 c-16 -28 -30 -56 -30 -62 0 -5 14 -34 30 -63 l30 -53 64 3 65 3 32 55 c35 59 35 56 -13 133 -23 36 -24 37 -86 37 l-62 0 -30 -53z m177 -15 l27 -47 -27 -48 -27 -47 -55 0 c-55 0 -55 0 -83 45 -15 25 -27 47 -27 49 0 2 12 24 26 50 l26 46 56 0 57 0 27 -48z"/> <path d="M48 1801 c51 -6 54 -8 79 -53 l26 -48 -26 -47 c-25 -46 -28 -48 -79 -54 l-53 -6 59 1 c60 1 60 1 87 46 34 56 34 64 0 120 -27 45 -27 45 -87 46 l-59 1 53 -6z"/> <path d="M377 1773 c-49 -78 -49 -75 -13 -134 l32 -54 65 0 64 0 32 54 c31 52 32 55 16 85 -40 79 -50 86 -114 86 -57 0 -59 -1 -82 -37z m166 -28 c15 -25 27 -48 27 -50 0 -2 -12 -25 -27 -50 -28 -45 -28 -45 -83 -45 l-55 0 -28 49 -27 49 27 46 c28 45 29 45 83 46 55 0 55 0 83 -45z"/> <path d="M780 1748 c-16 -29 -30 -55 -30 -58 0 -3 14 -29 30 -57 l30 -53 65 0 65 0 30 48 c16 26 30 53 30 61 0 7 -12 35 -27 62 l-28 49 -67 0 -68 0 -30 -52z m179 -10 l26 -47 -25 -46 -25 -46 -60 3 c-60 3 -60 3 -84 48 l-24 45 29 48 29 48 54 -3 c53 -3 54 -4 80 -50z"/> <path d="M1207 1763 c-49 -77 -48 -74 -10 -136 l35 -57 57 0 c64 0 72 6 110 75 l22 40 -31 58 -32 57 -64 0 c-63 0 -64 -1 -87 -37z m168 -29 l27 -46 -25 -47 c-26 -46 -26 -46 -84 -49 l-58 -2 -26 48 -27 48 27 47 26 47 57 0 56 0 27 -46z"/> <path d="M1628 1768 c-50 -77 -51 -83 -17 -143 l31 -55 66 0 67 0 31 57 31 56 -31 53 -31 54 -66 0 c-58 0 -69 -3 -81 -22z m160 -36 l30 -49 -27 -47 -26 -47 -58 3 c-58 3 -59 3 -84 48 l-25 45 28 48 c28 46 30 47 81 47 51 0 52 -1 81 -48z"/> <path d="M2053 1778 c-6 -7 -21 -33 -34 -56 l-24 -44 32 -56 31 -57 60 -2 c67 -2 73 2 112 74 l23 41 -32 56 -32 56 -64 0 c-38 0 -66 -5 -72 -12z m155 -58 l24 -45 -27 -48 -27 -48 -57 3 c-56 3 -56 3 -80 49 l-25 47 25 46 24 47 60 -3 60 -3 23 -45z"/> <path d="M2457 1753 c-50 -80 -50 -76 -14 -137 l32 -56 65 0 65 0 32 58 31 57 -32 55 -32 55 -62 3 c-61 3 -61 3 -85 -35z m165 -33 l28 -50 -28 -45 c-27 -45 -27 -45 -84 -45 l-56 0 -26 46 -26 46 28 49 27 49 55 0 55 0 27 -50z"/> <path d="M2861 1730 c-17 -28 -31 -56 -30 -63 0 -6 13 -32 28 -57 27 -45 27 -45 87 -46 56 -1 57 -1 7 3 -49 4 -53 6 -77 48 -32 54 -32 56 -1 105 24 38 28 40 75 40 28 0 50 5 50 10 0 6 -24 10 -54 10 l-54 0 -31 -50z"/> <path d="M183 1678 c-5 -7 -21 -33 -34 -57 l-24 -43 31 -57 31 -56 61 -3 62 -3 36 57 37 57 -31 56 -31 56 -64 3 c-43 2 -67 -1 -74 -10z m152 -54 l27 -46 -25 -47 c-25 -45 -27 -46 -81 -49 l-55 -3 -30 48 -30 47 27 48 27 48 57 0 56 0 27 -46z"/> <path d="M597 1665 c-12 -12 -30 -39 -41 -58 l-18 -35 32 -56 31 -56 65 0 64 0 30 48 c16 26 30 53 30 61 0 11 -41 92 -56 110 -2 2 -29 5 -60 7 -48 3 -59 0 -77 -21z m152 -46 l25 -46 -24 -47 -25 -47 -60 3 -60 3 -23 45 -24 45 27 48 27 48 56 -3 c54 -3 55 -4 81 -49z"/> <path d="M990 1633 c-16 -27 -30 -54 -30 -62 0 -7 12 -35 28 -62 l27 -50 69 3 69 3 29 52 30 53 -32 55 -31 55 -65 0 -64 0 -30 -47z m176 -19 l27 -45 -26 -47 -26 -47 -57 0 -57 0 -26 47 -26 47 25 45 25 46 57 0 57 0 27 -46z"/> <path d="M1433 1668 c-5 -7 -21 -34 -36 -59 l-26 -46 33 -54 32 -54 65 -3 64 -3 33 56 c31 55 31 57 16 88 -41 79 -51 87 -113 87 -35 0 -62 -5 -68 -12z m151 -54 l30 -47 -26 -46 c-26 -46 -27 -46 -85 -49 l-58 -3 -27 48 -27 49 30 47 c29 46 30 47 82 47 51 0 53 -1 81 -46z"/> <path d="M1820 1618 c-16 -29 -30 -55 -30 -58 0 -3 14 -29 30 -57 l30 -53 68 0 67 0 28 50 c15 28 27 56 27 63 0 6 -14 33 -30 60 l-30 47 -65 0 -65 0 -30 -52z m178 -11 l27 -48 -26 -47 c-26 -46 -27 -47 -81 -50 l-56 -3 -26 47 c-14 25 -26 50 -26 54 0 4 11 28 25 52 l25 45 56 -2 c56 -1 56 -1 82 -48z"/> <path d="M2263 1658 c-5 -7 -21 -33 -35 -58 l-26 -45 32 -55 32 -55 65 -3 64 -3 33 57 c18 31 31 60 30 63 -2 3 -16 30 -32 59 l-29 52 -62 0 c-38 0 -66 -5 -72 -12z m152 -54 l27 -46 -25 -47 c-26 -46 -26 -46 -84 -49 l-58 -2 -26 47 -26 48 26 47 26 48 57 0 56 0 27 -46z"/> <path d="M2650 1606 l-31 -55 32 -55 31 -56 66 0 67 0 32 55 32 55 -32 55 -31 55 -67 0 -68 0 -31 -54z m182 -8 l29 -46 -28 -46 c-28 -46 -28 -46 -84 -46 -57 0 -57 0 -84 45 l-26 45 28 50 28 51 54 -3 c53 -3 55 -4 83 -50z"/> <path d="M0 1560 c0 -5 22 -10 50 -10 48 0 50 -1 77 -47 l27 -46 -26 -46 c-24 -44 -27 -46 -77 -49 -28 -2 -51 -8 -51 -13 0 -6 23 -9 56 -7 l56 3 31 56 31 55 -33 57 -32 57 -55 0 c-30 0 -54 -4 -54 -10z"/> <path d="M361 1506 l-31 -55 32 -55 32 -56 66 0 66 0 32 56 32 56 -31 54 -30 54 -69 0 -68 0 -31 -54z m182 -6 l28 -50 -26 -45 -27 -45 -58 0 -58 0 -26 46 -25 45 27 49 27 50 55 0 55 0 28 -50z"/> <path d="M779 1504 l-32 -56 23 -41 c39 -71 47 -77 111 -77 l58 0 30 54 c17 29 31 58 31 65 0 6 -14 33 -31 61 l-31 50 -63 0 -64 0 -32 -56z m181 -10 l24 -46 -25 -47 -24 -46 -58 0 -58 0 -26 47 -26 47 27 45 27 46 57 0 57 0 25 -46z"/> <path d="M1193 1496 l-31 -54 32 -54 32 -53 66 -3 66 -3 31 56 32 57 -29 51 -29 52 -69 3 -69 3 -32 -55z m181 -3 l28 -48 -25 -45 c-25 -45 -26 -45 -84 -48 l-58 -3 -26 48 c-23 41 -25 51 -15 68 7 11 20 32 30 48 15 24 22 27 69 27 52 0 52 -1 81 -47z"/> <path d="M1611 1495 l-32 -56 28 -50 c15 -28 35 -55 46 -60 16 -9 113 -7 122 2 1 2 16 27 33 55 l30 52 -32 53 -32 54 -66 3 -66 3 -31 -56z m181 -12 l25 -48 -26 -45 c-26 -43 -29 -45 -80 -48 -57 -3 -61 -1 -96 64 -17 31 -17 33 10 78 l27 46 57 0 58 0 25 -47z"/> <path d="M2031 1496 c-17 -29 -31 -58 -31 -65 0 -6 14 -33 31 -61 l31 -50 63 0 64 0 32 56 32 56 -23 41 c-39 71 -47 77 -111 77 l-58 0 -30 -54z m176 -18 l26 -47 -27 -45 -27 -46 -57 0 -57 0 -24 45 c-21 39 -22 49 -12 73 31 68 38 73 97 70 54 -3 56 -4 81 -50z"/> <path d="M2442 1484 l-32 -55 31 -55 31 -54 67 0 66 0 33 54 32 54 -32 56 -32 56 -66 0 -66 0 -32 -56z m182 -10 l25 -45 -27 -50 -27 -49 -55 2 c-53 3 -55 4 -83 50 l-29 46 27 46 27 46 58 0 58 0 26 -46z"/> <path d="M2859 1483 l-33 -57 31 -55 31 -56 56 -3 c34 -2 56 1 56 8 0 5 -22 10 -50 10 -48 0 -50 1 -76 46 l-28 47 26 46 c26 44 29 46 77 49 68 4 65 22 -3 22 l-55 0 -32 -57z"/> <path d="M199 1443 c-8 -2 -29 -28 -46 -57 l-30 -53 32 -54 31 -54 68 0 67 0 31 56 31 56 -36 56 c-37 57 -37 57 -84 56 -27 -1 -55 -3 -64 -6z m138 -64 l25 -47 -27 -46 -27 -46 -56 0 -57 0 -27 48 -27 48 31 47 31 48 54 -3 c53 -3 55 -4 80 -49z"/> <path d="M571 1386 c-17 -29 -31 -56 -31 -60 0 -3 14 -28 31 -56 l31 -50 67 0 67 0 29 54 29 55 -23 43 c-37 67 -38 68 -106 68 l-64 0 -30 -54z m179 -12 l25 -45 -26 -47 c-26 -46 -27 -47 -81 -50 l-56 -3 -26 48 c-23 40 -25 51 -16 73 29 64 37 70 98 70 l57 0 25 -46z"/> <path d="M990 1388 c-16 -29 -30 -59 -30 -65 0 -7 14 -35 31 -63 l31 -50 62 0 61 0 33 55 c19 31 32 59 30 63 -2 4 -16 31 -32 60 l-29 52 -63 0 -64 0 -30 -52z m177 -19 l25 -47 -27 -46 -27 -46 -56 0 -57 0 -26 48 c-22 39 -24 50 -14 67 49 81 42 76 101 73 54 -3 56 -4 81 -49z"/> <path d="M1403 1374 l-31 -57 32 -53 31 -54 67 0 67 0 31 54 31 55 -32 55 -31 56 -67 0 -68 0 -30 -56z m181 -7 l29 -47 -29 -47 c-29 -47 -30 -47 -83 -46 -53 1 -54 2 -82 47 -27 43 -28 48 -14 71 8 14 21 35 29 48 11 19 21 22 67 21 53 0 54 -1 83 -47z"/> <path d="M1821 1377 c-17 -30 -31 -58 -31 -62 0 -4 15 -31 32 -61 l33 -54 62 0 62 0 32 57 33 57 -31 55 -31 56 -65 3 -65 3 -31 -54z m178 -18 l25 -46 -28 -47 -27 -47 -55 3 c-54 3 -56 4 -82 49 l-26 46 28 47 27 47 57 -3 c57 -3 57 -3 81 -49z"/> <path d="M2235 1365 l-30 -55 30 -55 29 -55 67 0 68 0 31 55 32 55 -30 53 -29 52 -69 3 -69 3 -30 -56z m180 -6 l26 -50 -26 -45 -26 -44 -58 0 -58 0 -25 47 -26 46 30 49 c30 48 30 48 84 48 l54 0 25 -51z"/> <path d="M2652 1364 l-32 -56 31 -54 c17 -30 34 -54 37 -55 4 0 23 -1 42 -1 83 -2 87 -1 118 55 l30 52 -32 57 -31 58 -65 0 -66 0 -32 -56z m180 -11 l26 -46 -26 -49 -27 -48 -55 0 -55 0 -28 50 -28 50 26 45 27 45 57 0 58 0 25 -47z"/> <path d="M47 1313 c49 -4 53 -6 77 -48 32 -54 32 -56 1 -105 -24 -38 -28 -40 -75 -40 -28 0 -50 -5 -50 -10 0 -7 22 -10 57 -8 l56 3 30 55 30 55 -30 50 -29 50 -60 1 c-56 1 -57 1 -7 -3z"/> <path d="M363 1263 l-31 -58 29 -50 c33 -58 51 -66 119 -58 48 6 51 8 80 58 l30 53 -32 56 -32 56 -66 0 -65 0 -32 -57z m182 -8 l26 -45 -28 -50 -28 -50 -55 0 -55 0 -27 50 -28 50 28 45 c27 45 27 45 83 45 57 0 57 0 84 -45z"/> <path d="M803 1297 c-10 -13 -27 -39 -37 -59 l-19 -35 32 -57 32 -56 64 0 63 0 31 50 c17 28 31 55 31 62 0 15 -50 101 -64 110 -6 4 -34 8 -63 8 -42 0 -55 -4 -70 -23z m150 -37 c10 -19 23 -39 27 -44 5 -5 -3 -31 -18 -57 l-27 -49 -60 2 -60 3 -24 46 -24 45 28 48 27 47 56 -3 c52 -3 57 -5 75 -38z"/> <path d="M1194 1253 l-31 -56 31 -54 31 -54 69 3 69 3 29 52 30 53 -32 55 -31 55 -67 0 -67 0 -31 -57z m183 -13 l25 -45 -28 -48 -29 -48 -54 3 c-53 3 -56 4 -82 48 l-26 45 26 48 26 48 58 -3 c58 -3 59 -3 84 -48z"/> <path d="M1615 1255 c-20 -31 -35 -59 -33 -63 2 -4 16 -31 32 -60 l30 -53 65 3 65 3 32 54 32 53 -33 57 -33 56 -61 3 -61 3 -35 -56z m176 -13 l27 -48 -27 -47 -26 -48 -58 3 c-58 3 -59 3 -84 48 l-25 45 27 48 27 47 56 0 57 0 26 -48z"/> <path d="M2025 1245 l-29 -55 29 -55 30 -56 69 3 69 3 29 52 30 53 -32 55 -31 55 -67 0 -67 0 -30 -55z m183 -15 l24 -45 -27 -48 -27 -48 -56 3 c-54 3 -55 4 -81 50 l-26 47 25 46 25 46 60 -3 60 -3 23 -45z"/> <path d="M2462 1273 c-11 -16 -26 -42 -35 -59 -16 -30 -15 -33 16 -85 l32 -54 64 0 65 0 32 54 c36 59 36 56 -13 134 -23 36 -25 37 -82 37 -54 0 -62 -3 -79 -27z m160 -41 l27 -47 -27 -48 -27 -48 -58 3 c-58 3 -58 3 -83 49 l-26 46 29 46 c28 47 28 47 83 47 l55 0 27 -48z"/> <path d="M2875 1265 c-55 -91 -54 -80 -14 -145 l31 -50 54 0 c32 0 54 4 54 11 0 6 -20 9 -51 8 l-51 -3 -26 47 -25 47 25 47 26 47 51 -3 c31 -1 51 2 51 8 0 7 -22 11 -55 11 -47 0 -57 -3 -70 -25z"/> <path d="M155 1145 l-30 -56 30 -55 30 -55 69 3 69 3 29 52 29 51 -31 56 -32 56 -66 0 -67 0 -30 -55z m180 -10 l27 -44 -29 -51 -28 -51 -54 3 c-53 3 -56 4 -82 48 l-26 45 26 47 26 48 57 0 c57 0 57 0 83 -45z"/> <path d="M574 1148 c-16 -29 -30 -56 -32 -60 -2 -4 11 -32 30 -63 l33 -55 61 0 62 0 31 50 c17 28 31 55 31 61 0 7 -14 36 -31 65 l-30 54 -63 0 -63 0 -29 -52z m166 0 c33 -54 34 -72 5 -117 -26 -42 -26 -42 -81 -39 -54 3 -56 4 -81 49 l-26 45 27 47 c28 47 28 47 82 47 50 0 56 -2 74 -32z"/> <path d="M985 1136 l-30 -55 30 -56 30 -56 69 3 69 3 29 53 30 52 -30 53 -29 52 -69 3 -69 3 -30 -55z m160 32 c1 -2 12 -22 24 -46 l22 -43 -25 -44 c-24 -41 -28 -43 -77 -47 -60 -4 -60 -3 -88 42 -27 44 -26 54 3 104 24 42 24 42 81 39 31 -1 58 -3 60 -5z"/> <path d="M1433 1178 c-5 -7 -21 -33 -35 -58 l-26 -45 32 -55 32 -55 60 -3 c67 -3 74 1 113 73 l22 41 -32 57 -33 57 -62 0 c-37 0 -65 -5 -71 -12z m154 -58 l25 -45 -28 -48 c-29 -47 -29 -47 -84 -47 l-55 0 -26 48 -27 48 27 47 26 48 58 -3 c58 -3 59 -3 84 -48z"/> <path d="M1843 1168 c-6 -7 -20 -32 -33 -55 l-23 -41 30 -54 30 -53 65 -3 c71 -3 70 -3 108 66 l24 43 -30 54 -29 55 -66 0 c-41 0 -70 -5 -76 -12z m156 -49 l25 -46 -24 -47 -25 -47 -60 3 -60 3 -23 45 -24 45 27 48 27 48 56 -3 c54 -3 55 -4 81 -49z"/> <path d="M2240 1133 c-16 -27 -30 -54 -30 -62 0 -17 49 -103 64 -113 6 -4 32 -8 59 -8 54 0 74 15 107 80 l21 41 -33 54 -33 55 -62 0 -63 0 -30 -47z m175 -19 l27 -46 -25 -47 -26 -46 -57 0 c-58 0 -58 0 -85 45 l-26 45 26 47 26 48 57 0 56 0 27 -46z"/> <path d="M2672 1153 c-11 -16 -27 -42 -36 -60 -15 -31 -15 -33 16 -87 l32 -56 66 0 65 0 32 58 32 57 -35 58 -36 57 -58 0 c-53 0 -61 -3 -78 -27z m160 -43 l28 -50 -28 -45 c-27 -45 -27 -45 -83 -45 -57 0 -57 0 -84 45 l-26 45 28 50 28 50 55 0 55 0 27 -50z"/> <path d="M0 1070 c0 -5 22 -10 50 -10 47 0 51 -2 75 -40 31 -49 31 -51 -1 -105 -24 -42 -28 -44 -77 -48 l-52 -3 60 -2 60 -2 29 55 28 55 -30 52 -29 53 -57 3 c-34 2 -56 -1 -56 -8z"/> <path d="M377 1043 c-49 -78 -48 -73 -14 -135 l32 -58 65 0 66 0 32 56 33 57 -34 56 -33 56 -62 3 -61 3 -24 -38z m167 -32 l26 -49 -27 -46 c-28 -46 -28 -46 -83 -46 -55 0 -55 0 -82 45 l-28 45 28 50 27 50 56 0 56 0 27 -49z"/> <path d="M780 1018 c-16 -29 -30 -55 -30 -58 0 -3 14 -29 30 -57 l30 -53 68 0 67 0 28 49 c15 27 27 55 27 62 0 8 -14 35 -30 62 l-30 47 -65 0 -65 0 -30 -52z m180 -14 l25 -45 -26 -47 c-26 -46 -27 -47 -81 -50 l-56 -3 -26 48 c-23 40 -25 51 -16 73 29 64 37 70 98 70 l57 0 25 -46z"/> <path d="M1223 1058 c-5 -7 -21 -33 -35 -58 l-26 -45 32 -55 32 -55 66 -3 66 -3 31 58 32 58 -22 40 c-38 69 -46 75 -109 75 -34 0 -61 -5 -67 -12z m154 -59 l25 -47 -27 -46 -27 -46 -56 0 -57 0 -27 48 -27 47 27 48 27 48 58 -3 c58 -3 58 -3 84 -49z"/> <path d="M1610 1005 l-31 -55 31 -55 31 -55 67 0 67 0 31 54 31 53 -31 56 -31 57 -67 0 -67 0 -31 -55z m179 -5 l31 -50 -31 -50 c-30 -50 -31 -50 -82 -50 -52 0 -52 0 -80 50 l-28 50 28 50 c28 50 28 50 80 50 51 0 52 0 82 -50z"/> <path d="M2031 1008 c-17 -29 -31 -57 -31 -63 0 -5 14 -34 30 -62 l30 -53 63 0 62 0 34 57 34 56 -31 56 -31 56 -65 3 -65 3 -30 -53z m175 -14 l28 -47 -26 -46 c-26 -46 -27 -46 -85 -49 l-58 -3 -26 49 c-20 40 -23 52 -14 68 47 78 42 74 100 74 54 0 54 0 81 -46z"/> <path d="M2440 995 l-31 -55 33 -55 33 -55 65 0 66 0 31 55 32 55 -32 55 -31 55 -67 0 -68 0 -31 -55z m182 -5 l27 -49 -25 -45 -26 -46 -58 0 -58 0 -26 45 c-29 48 -28 55 16 118 17 24 26 27 71 27 52 0 52 0 79 -50z"/> <path d="M2859 994 l-32 -57 31 -56 31 -56 55 -3 c33 -2 56 1 56 7 0 5 -23 11 -51 13 -48 3 -51 5 -77 49 l-26 46 28 47 c26 45 28 46 76 46 28 0 50 5 50 10 0 6 -24 10 -54 10 l-55 0 -32 -56z"/> <path d="M177 938 c-8 -13 -23 -39 -34 -59 l-20 -36 32 -54 31 -54 65 -3 64 -3 34 57 33 56 -22 42 c-39 71 -47 76 -111 76 -50 0 -61 -3 -72 -22z m160 -49 l26 -45 -27 -47 -28 -47 -56 0 -57 0 -26 48 -26 47 26 48 26 47 58 -2 c58 -3 59 -3 84 -49z"/> <path d="M570 898 c-16 -29 -30 -55 -30 -58 0 -3 14 -29 30 -57 l30 -53 65 0 65 0 30 48 c16 26 30 53 30 59 0 7 -12 35 -27 63 l-28 50 -67 0 -68 0 -30 -52z m179 -10 l26 -47 -27 -48 c-26 -48 -27 -48 -82 -50 l-55 -2 -26 47 -27 47 26 53 26 53 57 -3 c55 -3 56 -3 82 -50z"/> <path d="M1013 938 c-6 -7 -21 -33 -34 -57 l-24 -43 31 -57 31 -56 64 -3 64 -3 33 55 c17 30 32 57 32 61 0 4 -15 31 -32 61 l-33 54 -61 0 c-37 0 -65 -5 -71 -12z m152 -54 l27 -46 -25 -47 -26 -46 -57 0 -58 0 -26 45 -27 45 26 47 26 48 57 0 56 0 27 -46z"/> <path d="M1403 886 l-31 -54 32 -56 31 -56 66 0 67 0 31 56 32 55 -31 55 -31 54 -68 0 -67 0 -31 -54z m181 -3 l28 -48 -25 -45 c-25 -45 -26 -45 -84 -48 l-58 -3 -26 47 -27 47 30 49 c29 47 30 48 81 48 51 0 53 -1 81 -47z"/> <path d="M1821 888 c-17 -29 -31 -56 -31 -60 0 -9 40 -79 57 -99 12 -14 39 -16 123 -10 9 1 29 25 45 55 l29 53 -31 54 -30 54 -66 3 -66 3 -30 -53z m179 -14 l24 -47 -25 -46 c-26 -45 -27 -46 -81 -49 l-56 -3 -26 48 c-23 40 -25 51 -16 73 29 64 37 70 98 70 l57 0 25 -46z"/> <path d="M2240 888 c-16 -29 -30 -60 -29 -68 0 -8 13 -35 28 -60 l27 -45 65 -3 64 -3 33 55 c32 55 33 56 16 88 -41 81 -50 88 -114 88 l-60 0 -30 -52z m177 -19 l25 -47 -27 -46 -27 -46 -56 0 -57 0 -26 48 c-23 40 -25 50 -15 67 7 11 20 33 30 48 16 26 21 28 72 25 54 -3 56 -4 81 -49z"/> <path d="M2651 875 l-31 -55 31 -55 31 -55 67 0 67 0 31 54 31 54 -32 56 -31 56 -66 0 -67 0 -31 -55z m183 -9 l26 -45 -28 -48 c-28 -48 -28 -48 -82 -48 -54 0 -54 0 -83 47 l-29 46 27 46 27 46 58 0 58 0 26 -44z"/> <path d="M0 830 c0 -5 22 -10 49 -10 47 0 50 -1 75 -44 32 -55 32 -57 1 -106 -24 -38 -28 -40 -75 -40 -28 0 -50 -5 -50 -10 0 -7 22 -10 57 -8 l56 3 30 55 30 55 -32 58 -33 57 -54 0 c-30 0 -54 -4 -54 -10z"/> <path d="M363 775 l-32 -55 32 -55 31 -55 67 0 67 0 31 55 32 56 -33 54 -33 55 -65 0 -66 0 -31 -55z m182 -12 l27 -45 -29 -46 c-29 -47 -29 -47 -83 -47 -53 0 -54 0 -82 47 l-29 47 26 45 c25 42 29 45 73 48 64 4 68 2 97 -49z"/> <path d="M780 773 l-32 -57 30 -56 31 -55 67 0 67 0 30 54 31 55 -30 55 -31 56 -65 3 -66 3 -32 -58z m176 -4 c28 -45 27 -63 -6 -117 -20 -32 -22 -33 -76 -30 -54 3 -56 4 -81 49 l-26 45 27 47 c28 47 28 47 82 47 52 0 55 -1 80 -41z"/> <path d="M1194 764 l-32 -57 32 -53 31 -54 67 0 67 0 31 55 31 55 -31 55 -31 55 -67 0 -67 0 -31 -56z m179 -4 l28 -50 -27 -47 -26 -48 -56 2 c-54 1 -55 2 -83 47 l-29 46 31 50 c30 50 31 50 82 50 52 0 52 0 80 -50z"/> <path d="M1614 768 c-16 -29 -30 -56 -32 -60 -2 -4 13 -32 33 -63 l35 -56 62 3 62 3 32 55 c35 59 35 56 -13 133 -23 36 -24 37 -87 37 l-63 0 -29 -52z m178 -16 l27 -47 -27 -48 -27 -48 -58 3 c-58 3 -58 3 -84 49 l-25 47 27 46 27 46 56 0 57 0 27 -48z"/> <path d="M2025 756 l-29 -55 23 -43 c39 -69 38 -69 109 -66 l65 3 30 55 30 55 -32 53 -33 52 -67 0 -67 0 -29 -54z m180 -3 l27 -48 -24 -45 -23 -45 -60 -3 -60 -3 -22 40 c-29 50 -29 53 3 107 25 43 27 44 79 44 53 0 53 0 80 -47z"/> <path d="M2442 754 l-33 -57 34 -56 33 -56 64 0 64 0 32 54 c32 53 32 55 17 85 -40 79 -49 86 -117 86 l-62 0 -32 -56z m180 -10 l28 -45 -28 -49 -27 -50 -55 0 -55 0 -28 49 -27 50 27 45 c28 46 28 46 83 46 54 -1 55 -1 82 -46z"/> <path d="M2856 746 l-29 -54 30 -53 30 -54 57 -3 c34 -2 56 1 56 8 0 6 -23 10 -53 10 -52 0 -52 0 -77 46 l-24 46 26 47 c25 44 29 46 80 52 l53 6 -60 1 -60 2 -29 -54z"/> <path d="M155 655 l-30 -54 30 -56 30 -55 67 0 67 0 31 55 31 55 -31 55 -31 55 -68 0 -67 0 -29 -55z m178 -6 l29 -50 -29 -47 c-28 -45 -31 -47 -80 -50 l-51 -3 -30 52 -30 52 30 49 c29 47 30 48 81 48 l52 0 28 -51z"/> <path d="M571 656 c-17 -29 -31 -57 -31 -61 0 -4 15 -31 32 -61 l33 -54 62 0 62 0 30 54 c17 29 31 58 31 65 0 6 -14 33 -31 61 l-31 50 -63 0 -64 0 -30 -54z m179 -12 l24 -47 -25 -46 -26 -46 -57 0 -57 0 -26 46 -26 45 27 47 28 47 56 0 57 0 25 -46z"/> <path d="M988 651 c-16 -27 -28 -55 -28 -62 0 -8 14 -35 30 -61 l30 -48 64 0 65 0 31 55 32 55 -30 53 -29 52 -69 3 -69 3 -27 -50z m179 -12 l25 -47 -27 -46 -27 -46 -57 0 -58 0 -25 48 c-22 40 -24 50 -14 67 7 11 20 33 30 48 16 26 21 28 72 25 54 -3 56 -4 81 -49z"/> <path d="M1404 644 l-32 -57 30 -51 c17 -28 35 -54 42 -58 6 -4 34 -8 63 -8 55 0 67 9 106 86 16 31 15 34 -14 88 l-31 56 -66 0 -67 0 -31 -56z m183 -14 l25 -45 -28 -48 c-29 -46 -29 -47 -81 -47 -52 0 -53 1 -82 47 l-30 47 27 49 27 48 58 -3 c58 -3 59 -3 84 -48z"/> <path d="M1821 643 l-35 -57 31 -56 31 -55 68 0 67 0 31 56 30 55 -33 57 -32 57 -62 0 -62 0 -34 -57z m174 -6 c31 -54 31 -58 0 -108 -26 -40 -26 -40 -82 -37 -55 3 -56 4 -81 48 l-25 46 27 47 c28 47 28 47 82 47 52 0 54 -1 79 -43z"/> <path d="M2235 635 l-30 -55 30 -55 30 -56 69 3 69 3 29 52 30 53 -32 55 -31 55 -68 0 -67 0 -29 -55z m180 -10 l27 -44 -28 -51 -28 -51 -55 3 c-53 3 -56 4 -82 48 l-26 45 25 48 25 47 58 0 58 0 26 -45z"/> <path d="M2655 638 c-16 -29 -30 -57 -30 -63 0 -5 14 -34 30 -62 l30 -53 61 0 c66 0 66 0 106 70 l26 45 -32 55 -32 55 -65 3 -64 3 -30 -53z m177 -16 l27 -47 -27 -48 -27 -47 -55 0 c-55 0 -55 0 -83 45 -15 25 -27 48 -27 50 0 2 12 25 27 50 28 45 28 45 83 45 l55 0 27 -48z"/> <path d="M0 580 c0 -7 18 -11 51 -9 l51 3 26 -47 25 -47 -26 -47 -26 -48 -51 3 c-32 2 -50 -1 -50 -8 0 -7 20 -10 57 -8 56 3 57 4 84 48 34 56 34 64 0 120 -27 44 -28 45 -84 48 -37 2 -57 -1 -57 -8z"/> <path d="M377 553 c-49 -78 -49 -75 -13 -134 l32 -54 65 0 64 0 32 54 c31 52 32 55 16 85 -40 79 -50 86 -114 86 -57 0 -59 -1 -82 -37z m166 -28 c15 -25 27 -48 27 -50 0 -2 -12 -25 -27 -50 -28 -45 -28 -45 -83 -45 -54 1 -55 1 -83 46 l-27 46 27 49 28 49 55 0 c55 0 55 0 83 -45z"/> <path d="M779 528 l-32 -53 30 -55 30 -55 66 -3 66 -3 31 48 c16 26 30 54 30 62 0 7 -12 35 -27 62 l-28 49 -67 0 -66 0 -33 -52z m180 -10 l26 -47 -25 -45 -25 -46 -57 0 c-56 0 -58 1 -83 40 -14 22 -25 44 -25 49 0 6 12 30 27 55 27 44 27 44 81 43 54 -2 55 -2 81 -49z"/> <path d="M1207 543 c-49 -77 -48 -74 -10 -136 l35 -57 57 0 c64 0 72 6 111 76 l22 42 -33 56 -34 56 -62 0 c-62 0 -63 -1 -86 -37z m168 -29 l27 -46 -25 -47 c-25 -45 -27 -46 -81 -49 l-55 -3 -30 48 -30 47 27 48 27 48 57 0 56 0 27 -46z"/> <path d="M1628 548 c-50 -77 -51 -83 -17 -143 l31 -55 66 0 67 0 30 55 30 56 -29 54 -28 55 -68 0 c-59 0 -70 -3 -82 -22z m163 -38 l26 -45 -25 -48 -26 -48 -59 3 c-58 3 -59 3 -84 48 l-25 45 28 48 29 47 54 -2 c53 -3 56 -4 82 -48z"/> <path d="M2053 558 c-6 -7 -21 -32 -34 -56 l-23 -43 29 -55 c28 -51 31 -54 70 -55 22 0 50 -2 62 -3 26 -3 40 11 73 71 l23 41 -32 56 -32 56 -64 0 c-38 0 -66 -5 -72 -12z m153 -54 l27 -45 -26 -47 -26 -47 -57 0 -57 0 -26 46 -25 46 24 47 25 46 57 0 57 0 27 -46z"/> <path d="M2457 533 c-50 -80 -50 -76 -15 -137 l32 -56 62 0 c68 0 77 7 117 85 14 29 14 32 -17 85 l-32 55 -62 3 c-61 3 -61 3 -85 -35z m165 -33 l28 -50 -28 -45 c-27 -45 -27 -45 -84 -45 l-56 0 -26 46 -26 46 28 49 27 49 55 0 55 0 27 -50z"/> <path d="M2860 508 c-16 -29 -30 -57 -29 -63 0 -5 13 -30 28 -55 27 -45 27 -45 87 -46 l59 -1 -53 6 c-51 6 -55 8 -80 52 l-26 47 24 46 c25 46 25 46 77 46 29 0 53 5 53 10 0 6 -25 10 -55 10 l-55 0 -30 -52z"/> <path d="M183 458 c-5 -7 -21 -33 -35 -58 l-25 -45 34 -57 34 -58 58 0 c64 0 72 6 110 76 l23 41 -32 56 -32 57 -63 0 c-38 0 -66 -5 -72 -12z m152 -54 l27 -46 -25 -47 c-25 -45 -27 -46 -81 -49 l-55 -3 -30 48 -30 47 27 48 27 48 57 0 56 0 27 -46z"/> <path d="M610 456 c-12 -6 -33 -32 -47 -58 l-25 -46 32 -56 31 -56 65 0 64 0 30 48 c16 26 30 53 30 61 0 23 -54 111 -70 112 -68 6 -92 5 -110 -5z m139 -57 l25 -46 -24 -47 -25 -47 -59 3 c-59 3 -59 3 -84 48 l-24 45 27 48 27 48 56 -3 c54 -3 55 -4 81 -49z"/> <path d="M990 413 c-16 -27 -30 -54 -30 -62 0 -7 12 -35 28 -62 l27 -50 70 3 70 3 28 53 28 52 -31 55 -31 55 -65 0 -64 0 -30 -47z m176 -19 l27 -45 -26 -47 c-25 -46 -27 -47 -80 -50 l-55 -3 -30 49 -30 49 27 46 26 47 57 0 57 0 27 -46z"/> <path d="M1433 448 c-5 -7 -21 -34 -36 -59 l-26 -46 33 -54 32 -54 65 -3 64 -3 33 56 c31 55 31 57 16 88 -41 79 -51 87 -113 87 -35 0 -62 -5 -68 -12z m151 -55 l28 -48 -25 -45 c-25 -45 -26 -45 -84 -48 l-58 -3 -26 48 -27 47 27 48 26 48 55 0 c55 0 55 0 84 -47z"/> <path d="M1821 398 c-17 -29 -31 -57 -30 -63 0 -5 13 -30 28 -55 l27 -45 67 -3 66 -3 31 48 c16 26 29 55 29 63 0 8 -13 35 -28 60 l-27 45 -67 3 -66 3 -30 -53z m180 -13 l24 -45 -27 -48 -27 -47 -56 0 -56 0 -26 47 -26 47 24 46 24 45 61 0 61 0 24 -45z"/> <path d="M2263 438 c-5 -7 -21 -33 -35 -58 l-26 -45 32 -55 32 -55 65 -3 64 -3 33 57 c18 31 31 60 30 63 -2 3 -16 30 -32 59 l-29 52 -62 0 c-38 0 -66 -5 -72 -12z m152 -55 l26 -47 -25 -46 c-25 -45 -25 -45 -83 -48 l-58 -2 -26 47 -26 48 26 47 26 48 57 0 56 0 27 -47z"/> <path d="M2650 386 l-31 -55 32 -55 31 -56 67 0 68 0 30 56 30 57 -30 53 -31 54 -67 0 -68 0 -31 -54z m182 -7 l28 -46 -26 -47 -26 -46 -58 0 -58 0 -26 45 c-29 48 -28 55 16 118 18 25 25 28 71 25 48 -3 52 -5 79 -49z"/> <path d="M0 340 c0 -5 22 -10 49 -10 45 0 50 -2 75 -40 32 -49 32 -51 0 -106 -25 -43 -28 -44 -75 -44 -28 0 -49 -5 -49 -10 0 -7 22 -10 56 -8 l56 3 31 56 31 55 -33 57 -32 57 -55 0 c-30 0 -54 -4 -54 -10z"/> <path d="M361 285 l-30 -56 32 -54 32 -55 65 0 66 0 32 56 32 55 -31 55 -31 54 -68 0 -68 0 -31 -55z m182 -7 l29 -46 -27 -46 -27 -46 -58 0 -58 0 -26 46 c-14 25 -23 51 -19 58 52 89 50 87 106 84 49 -3 52 -5 80 -50z"/> <path d="M779 284 l-32 -56 23 -41 c39 -71 47 -77 111 -77 l58 0 30 54 c17 29 31 58 31 65 0 6 -14 33 -31 61 l-31 50 -63 0 -64 0 -32 -56z m181 -10 l24 -46 -25 -47 -24 -46 -58 0 -58 0 -26 47 -26 47 27 45 27 46 57 0 57 0 25 -46z"/> <path d="M1223 320 c-8 -9 -25 -34 -38 -56 l-24 -40 33 -55 32 -54 66 -3 66 -3 31 56 32 56 -28 51 c-31 57 -29 55 -102 61 -41 3 -57 0 -68 -13z m151 -47 l28 -48 -25 -45 c-25 -45 -26 -45 -84 -48 l-58 -3 -27 48 -27 49 30 47 c29 46 30 47 82 47 52 0 52 -1 81 -47z"/> <path d="M1611 275 l-32 -57 29 -51 29 -52 69 -3 69 -3 32 55 31 54 -32 54 -32 53 -66 3 -66 3 -31 -56z m180 -12 l27 -46 -30 -49 c-29 -47 -30 -48 -81 -48 -51 0 -53 1 -80 45 -15 25 -27 48 -27 51 0 3 12 25 26 50 26 44 26 44 82 44 l57 0 26 -47z"/> <path d="M2029 273 l-33 -57 30 -55 31 -56 65 -3 66 -3 32 57 33 56 -23 41 c-39 71 -47 77 -111 77 l-58 0 -32 -57z m179 -14 l26 -46 -28 -47 -27 -46 -57 0 -57 0 -24 45 c-21 39 -22 49 -12 73 31 68 38 73 97 70 54 -3 56 -4 82 -49z"/> <path d="M2442 265 l-33 -54 32 -56 31 -55 68 0 68 0 31 55 30 56 -32 54 -31 55 -66 0 -65 0 -33 -55z m182 -11 l25 -45 -27 -50 -27 -49 -55 2 c-53 3 -55 4 -83 50 l-29 46 27 46 27 46 58 0 58 0 26 -46z"/> <path d="M2859 263 l-32 -58 31 -55 30 -55 56 -3 c34 -2 56 1 56 8 0 5 -22 10 -50 10 -48 0 -50 1 -76 46 l-28 47 26 46 c26 44 29 46 77 49 68 4 65 22 -3 22 l-54 0 -33 -57z"/> <path d="M157 173 l-34 -58 25 -45 c41 -72 39 -71 109 -68 l64 3 31 56 31 56 -36 56 -37 57 -59 0 -60 0 -34 -57z m180 -14 l26 -45 -27 -47 -28 -47 -56 0 -57 0 -27 48 -27 48 30 47 30 48 55 -3 c54 -3 56 -4 81 -49z"/> <path d="M570 165 l-32 -55 30 -53 29 -52 69 -3 69 -3 28 50 c15 27 27 55 27 62 0 8 -14 35 -30 62 l-30 47 -64 0 -65 0 -31 -55z m180 -11 l25 -45 -26 -47 -26 -47 -57 0 -57 0 -26 47 -26 47 27 45 27 46 57 0 57 0 25 -46z"/> <path d="M990 168 c-16 -29 -30 -58 -30 -65 0 -7 12 -33 27 -58 l28 -45 70 0 70 0 28 53 29 52 -33 58 -33 57 -63 0 -63 0 -30 -52z m177 -19 l25 -47 -27 -46 -27 -46 -56 0 -57 0 -26 47 -25 46 25 49 26 49 58 -3 c58 -3 58 -3 84 -49z"/> <path d="M1403 154 l-32 -55 30 -49 c17 -28 35 -50 40 -50 11 0 10 2 -28 62 l-23 38 31 50 c30 50 31 50 82 50 52 0 52 0 80 -50 l29 -51 -26 -44 c-28 -46 -30 -55 -18 -55 4 0 20 22 35 50 l28 49 -32 56 -31 55 -66 0 -67 0 -32 -56z"/> <path d="M1819 153 l-32 -56 25 -46 c15 -25 32 -47 38 -49 7 -3 0 18 -15 45 l-29 50 28 47 27 47 57 -3 c56 -3 57 -4 81 -47 l25 -45 -28 -49 c-15 -27 -22 -47 -15 -45 7 2 24 24 38 49 l25 45 -33 57 -32 57 -64 0 -64 0 -32 -57z"/> <path d="M2235 145 l-30 -54 25 -46 c13 -25 28 -45 32 -45 12 0 10 4 -16 50 l-24 43 30 48 c29 49 30 49 82 49 l53 0 27 -50 27 -50 -26 -45 c-15 -25 -22 -45 -16 -45 5 0 22 20 36 45 l27 45 -32 55 -31 55 -68 0 -67 0 -29 -55z"/> <path d="M2652 144 l-32 -56 22 -41 c13 -22 29 -43 37 -45 8 -3 3 13 -14 41 l-26 46 26 46 c27 45 27 45 84 45 56 0 56 0 84 -46 l27 -45 -27 -46 c-14 -25 -21 -44 -15 -42 7 2 24 23 37 45 l24 41 -32 54 -32 54 -65 3 -65 3 -33 -57z"/> <path d="M47 93 c49 -4 53 -6 78 -48 35 -61 49 -57 16 5 l-26 50 -60 -2 -60 -2 52 -3z"/> <path d="M367 50 c-16 -28 -24 -50 -18 -50 5 0 20 18 32 40 22 39 24 40 80 40 57 0 58 -1 80 -40 13 -22 27 -40 31 -40 5 0 -3 23 -18 50 l-27 50 -66 0 -66 0 -28 -50z"/> <path d="M817 89 c-20 -12 -62 -89 -47 -89 5 0 19 18 30 40 20 39 21 40 75 40 53 0 55 -1 77 -40 21 -36 38 -51 38 -34 0 6 -36 70 -47 83 -7 10 -109 9 -126 0z"/> <path d="M1205 53 c-11 -21 -21 -41 -23 -45 -2 -5 0 -8 5 -8 5 0 17 16 27 35 18 34 21 35 77 35 55 0 58 -1 78 -35 30 -52 44 -43 14 10 l-25 45 -67 0 -67 0 -19 -37z"/> <path d="M1626 53 c-27 -39 -32 -53 -18 -53 4 0 16 16 26 35 18 33 22 35 73 35 51 0 55 -2 74 -35 12 -19 25 -35 31 -35 6 0 -1 19 -15 43 -25 41 -26 42 -85 45 -60 3 -61 3 -86 -35z"/> <path d="M2040 48 c-11 -18 -20 -37 -20 -42 0 -14 29 14 35 35 5 16 16 19 66 19 56 0 61 -2 77 -30 9 -16 20 -30 25 -30 11 0 8 10 -14 46 -20 33 -23 34 -85 34 -62 0 -65 -1 -84 -32z"/> <path d="M2464 53 c-10 -15 -22 -34 -27 -40 -6 -9 -6 -13 1 -13 6 0 19 13 29 30 16 28 22 30 73 30 51 0 56 -2 72 -30 9 -17 22 -30 28 -30 6 0 0 17 -13 38 -23 35 -27 37 -85 40 -57 3 -62 1 -78 -25z"/> <path d="M2883 58 c-21 -26 -34 -58 -24 -58 6 0 17 13 26 29 13 26 21 30 67 34 l53 3 -56 2 c-35 1 -60 -3 -66 -10z"/> </g> </svg> 